<svg xmlns="http://www.w3.org/2000/svg" width="718" height="284" viewBox="0 0 718 284" role="img" aria-label="A book model through the shape file, the ground storage transform, and a pile slot">
<rect width="100%" height="100%" rx="8" fill="#26221d"/>
<rect x="16" y="16" width="190" height="190" rx="6" fill="#332d26" stroke="#5a4f42"/>
<line x1="111.0" y1="141.4" x2="153.5" y2="165.9" stroke="#7f9bb5" stroke-width="1" stroke-dasharray="3 2"/>
<text x="153.5" y="162.9" fill="#7f9bb5" font-family="system-ui, sans-serif" font-size="9" text-anchor="middle">x</text>
<line x1="111.0" y1="141.4" x2="111.0" y2="92.4" stroke="#7f9bb5" stroke-width="1" stroke-dasharray="3 2"/>
<text x="111.0" y="89.4" fill="#7f9bb5" font-family="system-ui, sans-serif" font-size="9" text-anchor="middle">y</text>
<line x1="111.0" y1="141.4" x2="68.5" y2="165.9" stroke="#7f9bb5" stroke-width="1" stroke-dasharray="3 2"/>
<text x="68.5" y="162.9" fill="#7f9bb5" font-family="system-ui, sans-serif" font-size="9" text-anchor="middle">z</text>
<polygon points="80.0,231.8 80.0,170.5 96.8,180.2 96.8,241.5" fill="#d9a441" fill-opacity="0.5" stroke="none"/>
<line x1="122.5" y1="207.3" x2="80.0" y2="231.8" stroke="#efe6d5" stroke-width="1.3"/>
<line x1="122.5" y1="207.3" x2="122.5" y2="146.0" stroke="#efe6d5" stroke-width="1.3"/>
<line x1="122.5" y1="207.3" x2="139.3" y2="217.0" stroke="#efe6d5" stroke-width="1.3"/>
<line x1="80.0" y1="231.8" x2="80.0" y2="170.5" stroke="#efe6d5" stroke-width="1.3"/>
<line x1="80.0" y1="231.8" x2="96.8" y2="241.5" stroke="#efe6d5" stroke-width="1.3"/>
<line x1="122.5" y1="146.0" x2="80.0" y2="170.5" stroke="#efe6d5" stroke-width="1.3"/>
<line x1="122.5" y1="146.0" x2="139.3" y2="155.7" stroke="#efe6d5" stroke-width="1.3"/>
<line x1="80.0" y1="170.5" x2="96.8" y2="180.2" stroke="#efe6d5" stroke-width="1.3"/>
<line x1="139.3" y1="217.0" x2="96.8" y2="241.5" stroke="#efe6d5" stroke-width="1.3"/>
<line x1="139.3" y1="217.0" x2="139.3" y2="155.7" stroke="#efe6d5" stroke-width="1.3"/>
<line x1="96.8" y1="241.5" x2="96.8" y2="180.2" stroke="#efe6d5" stroke-width="1.3"/>
<line x1="139.3" y1="155.7" x2="96.8" y2="180.2" stroke="#efe6d5" stroke-width="1.3"/>
<path d="M 220 111.0 l 28 0 m -7 -5 l 7 5 l -7 5" fill="none" stroke="#8a7f70" stroke-width="1.4"/>
<text x="16" y="226" fill="#cfc4b0" font-family="system-ui, sans-serif" font-size="12" font-weight="600">1. Shape file</text>
<text x="16" y="242" fill="#cfc4b0" font-family="system-ui, sans-serif" font-size="11">small-normal, standing.</text>
<text x="16" y="257" fill="#8a7f70" font-family="system-ui, sans-serif" font-size="10">1.9 x 6.0 x 4.8 in sixteenths; spine at +Z</text>
<rect x="264" y="16" width="190" height="190" rx="6" fill="#332d26" stroke="#5a4f42"/>
<line x1="359.0" y1="141.4" x2="401.5" y2="165.9" stroke="#7f9bb5" stroke-width="1" stroke-dasharray="3 2"/>
<text x="401.5" y="162.9" fill="#7f9bb5" font-family="system-ui, sans-serif" font-size="9" text-anchor="middle">x</text>
<line x1="359.0" y1="141.4" x2="359.0" y2="92.4" stroke="#7f9bb5" stroke-width="1" stroke-dasharray="3 2"/>
<text x="359.0" y="89.4" fill="#7f9bb5" font-family="system-ui, sans-serif" font-size="9" text-anchor="middle">y</text>
<line x1="359.0" y1="141.4" x2="316.5" y2="165.9" stroke="#7f9bb5" stroke-width="1" stroke-dasharray="3 2"/>
<text x="316.5" y="162.9" fill="#7f9bb5" font-family="system-ui, sans-serif" font-size="9" text-anchor="middle">z</text>
<polygon points="385.8,250.2 311.9,242.6 311.9,223.2 385.8,230.7" fill="#d9a441" fill-opacity="0.5" stroke="none"/>
<line x1="396.3" y1="216.0" x2="385.8" y2="250.2" stroke="#efe6d5" stroke-width="1.3"/>
<line x1="396.3" y1="216.0" x2="322.4" y2="208.5" stroke="#efe6d5" stroke-width="1.3"/>
<line x1="396.3" y1="216.0" x2="396.3" y2="196.6" stroke="#efe6d5" stroke-width="1.3"/>
<line x1="385.8" y1="250.2" x2="311.9" y2="242.6" stroke="#efe6d5" stroke-width="1.3"/>
<line x1="385.8" y1="250.2" x2="385.8" y2="230.7" stroke="#efe6d5" stroke-width="1.3"/>
<line x1="322.4" y1="208.5" x2="311.9" y2="242.6" stroke="#efe6d5" stroke-width="1.3"/>
<line x1="322.4" y1="208.5" x2="322.4" y2="189.1" stroke="#efe6d5" stroke-width="1.3"/>
<line x1="311.9" y1="242.6" x2="311.9" y2="223.2" stroke="#efe6d5" stroke-width="1.3"/>
<line x1="396.3" y1="196.6" x2="385.8" y2="230.7" stroke="#efe6d5" stroke-width="1.3"/>
<line x1="396.3" y1="196.6" x2="322.4" y2="189.1" stroke="#efe6d5" stroke-width="1.3"/>
<line x1="385.8" y1="230.7" x2="311.9" y2="223.2" stroke="#efe6d5" stroke-width="1.3"/>
<line x1="322.4" y1="189.1" x2="311.9" y2="223.2" stroke="#efe6d5" stroke-width="1.3"/>
<path d="M 468 111.0 l 28 0 m -7 -5 l 7 5 l -7 5" fill="none" stroke="#8a7f70" stroke-width="1.4"/>
<text x="264" y="226" fill="#cfc4b0" font-family="system-ui, sans-serif" font-size="12" font-weight="600">2. After groundStorageTransform</text>
<text x="264" y="242" fill="#cfc4b0" font-family="system-ui, sans-serif" font-size="11">Baked into the mesh by the item.</text>
<text x="264" y="257" fill="#8a7f70" font-family="system-ui, sans-serif" font-size="10">rotate Z 90 (tip flat), then Y 35</text>
<rect x="512" y="16" width="190" height="190" rx="6" fill="#332d26" stroke="#5a4f42"/>
<line x1="607.0" y1="141.4" x2="649.5" y2="165.9" stroke="#7f9bb5" stroke-width="1" stroke-dasharray="3 2"/>
<text x="649.5" y="162.9" fill="#7f9bb5" font-family="system-ui, sans-serif" font-size="9" text-anchor="middle">x</text>
<line x1="607.0" y1="141.4" x2="607.0" y2="92.4" stroke="#7f9bb5" stroke-width="1" stroke-dasharray="3 2"/>
<text x="607.0" y="89.4" fill="#7f9bb5" font-family="system-ui, sans-serif" font-size="9" text-anchor="middle">y</text>
<line x1="607.0" y1="141.4" x2="564.5" y2="165.9" stroke="#7f9bb5" stroke-width="1" stroke-dasharray="3 2"/>
<text x="564.5" y="162.9" fill="#7f9bb5" font-family="system-ui, sans-serif" font-size="9" text-anchor="middle">z</text>
<polygon points="578.0,266.8 578.0,205.5 594.8,215.2 594.8,276.5" fill="#d9a441" fill-opacity="0.5" stroke="none"/>
<line x1="620.5" y1="242.3" x2="578.0" y2="266.8" stroke="#efe6d5" stroke-width="1.3"/>
<line x1="620.5" y1="242.3" x2="620.5" y2="181.0" stroke="#efe6d5" stroke-width="1.3"/>
<line x1="620.5" y1="242.3" x2="637.3" y2="252.0" stroke="#efe6d5" stroke-width="1.3"/>
<line x1="578.0" y1="266.8" x2="578.0" y2="205.5" stroke="#efe6d5" stroke-width="1.3"/>
<line x1="578.0" y1="266.8" x2="594.8" y2="276.5" stroke="#efe6d5" stroke-width="1.3"/>
<line x1="620.5" y1="181.0" x2="578.0" y2="205.5" stroke="#efe6d5" stroke-width="1.3"/>
<line x1="620.5" y1="181.0" x2="637.3" y2="190.7" stroke="#efe6d5" stroke-width="1.3"/>
<line x1="578.0" y1="205.5" x2="594.8" y2="215.2" stroke="#efe6d5" stroke-width="1.3"/>
<line x1="637.3" y1="252.0" x2="594.8" y2="276.5" stroke="#efe6d5" stroke-width="1.3"/>
<line x1="637.3" y1="252.0" x2="637.3" y2="190.7" stroke="#efe6d5" stroke-width="1.3"/>
<line x1="594.8" y1="276.5" x2="594.8" y2="215.2" stroke="#efe6d5" stroke-width="1.3"/>
<line x1="637.3" y1="190.7" x2="594.8" y2="215.2" stroke="#efe6d5" stroke-width="1.3"/>
<text x="512" y="226" fill="#cfc4b0" font-family="system-ui, sans-serif" font-size="12" font-weight="600">3. After a pile slot</text>
<text x="512" y="242" fill="#cfc4b0" font-family="system-ui, sans-serif" font-size="11">Shelved stands it back up.</text>
<text x="512" y="257" fill="#8a7f70" font-family="system-ui, sans-serif" font-size="10">yaw 0, pitch -35, roll -90</text>
<text x="702" y="270" fill="#8a7f70" font-family="system-ui, sans-serif" font-size="9" text-anchor="end">gold face = spine</text>
</svg>
