<svg xmlns="http://www.w3.org/2000/svg" width="529" height="579" viewBox="0 0 529 579" role="img" aria-label="Plan and elevation of each book pile layout at full capacity">
<rect width="100%" height="100%" rx="8" fill="#26221d"/>
<rect x="13" y="13" width="116" height="116" fill="#332d26" stroke="#5a4f42"/>
<polygon points="21.6,84.5 55.2,75.5 55.2,75.5 66.5,117.5 32.9,126.5" fill="rgba(239,230,213,0.22)" stroke="rgba(239,230,213,0.85)" stroke-width="0.7"/>
<polygon points="19.5,109.7 33.1,77.7 33.1,77.7 73.2,94.7 59.6,126.7" fill="rgba(239,230,213,0.24)" stroke="rgba(239,230,213,0.85)" stroke-width="0.7"/>
<polygon points="26.8,80.4 61.6,80.4 61.6,80.4 61.6,123.9 26.8,123.9" fill="rgba(239,230,213,0.26)" stroke="rgba(239,230,213,0.85)" stroke-width="0.7"/>
<polygon points="20.8,88.9 53.1,75.9 69.4,116.2 37.1,129.2 37.1,129.2" fill="rgba(239,230,213,0.28)" stroke="rgba(239,230,213,0.85)" stroke-width="0.7"/>
<polygon points="18.9,55.9 35.9,15.9 68.0,29.5 68.0,29.5 51.0,69.5" fill="rgba(239,230,213,0.29)" stroke="rgba(239,230,213,0.85)" stroke-width="0.7"/>
<polygon points="26.8,21.7 61.6,21.7 61.6,21.7 61.6,65.2 26.8,65.2" fill="rgba(239,230,213,0.31)" stroke="rgba(239,230,213,0.85)" stroke-width="0.7"/>
<polygon points="26.1,60.1 26.1,25.3 69.6,25.3 69.6,60.1" fill="rgba(239,230,213,0.33)" stroke="rgba(239,230,213,0.85)" stroke-width="0.7"/>
<polygon points="15.4,44.9 46.1,14.1 70.7,38.7 40.0,69.5" fill="rgba(239,230,213,0.35)" stroke="rgba(239,230,213,0.85)" stroke-width="0.7"/>
<polygon points="77.5,21.0 112.3,21.0 112.3,64.5 77.5,64.5" fill="rgba(239,230,213,0.37)" stroke="rgba(239,230,213,0.85)" stroke-width="0.7"/>
<polygon points="69.7,55.2 86.7,15.2 118.7,28.8 118.7,28.8 101.7,68.8" fill="rgba(239,230,213,0.39)" stroke="rgba(239,230,213,0.85)" stroke-width="0.7"/>
<polygon points="70.7,30.6 102.7,17.0 119.7,57.1 87.6,70.7" fill="rgba(239,230,213,0.41)" stroke="rgba(239,230,213,0.85)" stroke-width="0.7"/>
<polygon points="70.4,60.3 87.4,20.2 119.4,33.8 119.4,33.8 102.4,73.9" fill="rgba(239,230,213,0.43)" stroke="rgba(239,230,213,0.85)" stroke-width="0.7"/>
<polygon points="68.5,98.0 93.1,73.4 123.8,104.2 99.2,128.8" fill="rgba(239,230,213,0.44)" stroke="rgba(239,230,213,0.85)" stroke-width="0.7"/>
<polygon points="76.8,79.0 111.6,79.0 111.6,122.5 76.8,122.5" fill="rgba(239,230,213,0.46)" stroke="rgba(239,230,213,0.85)" stroke-width="0.7"/>
<polygon points="66.9,102.9 97.6,72.1 97.6,72.1 122.2,96.7 91.5,127.5" fill="rgba(239,230,213,0.48)" stroke="rgba(239,230,213,0.85)" stroke-width="0.7"/>
<polygon points="22.2,57.5 22.8,22.7 66.3,23.5 65.6,58.3" fill="rgba(239,230,213,0.50)" stroke="rgba(239,230,213,0.85)" stroke-width="0.7"/>
<polygon points="71.8,82.4 105.4,73.4 116.7,115.4 83.1,124.4" fill="rgba(239,230,213,0.52)" stroke="rgba(239,230,213,0.85)" stroke-width="0.7"/>
<text x="18" y="25" fill="#8a7f70" font-family="system-ui, sans-serif" font-size="9">from above</text>
<rect x="13" y="137" width="116" height="116" fill="#332d26" stroke="#5a4f42"/>
<polygon points="21.6,253.0 32.9,253.0 66.5,253.0 66.5,239.2 55.2,239.2 21.6,239.2" fill="rgba(239,230,213,0.22)" stroke="rgba(239,230,213,0.85)" stroke-width="0.7"/>
<polygon points="19.5,239.2 59.6,239.2 73.2,239.2 73.2,225.4 33.1,225.4 19.5,225.4" fill="rgba(239,230,213,0.24)" stroke="rgba(239,230,213,0.85)" stroke-width="0.7"/>
<polygon points="26.8,225.4 61.6,225.4 61.6,211.7 26.8,211.7" fill="rgba(239,230,213,0.26)" stroke="rgba(239,230,213,0.85)" stroke-width="0.7"/>
<polygon points="20.8,211.7 37.1,211.7 69.4,211.7 69.4,197.9 20.8,197.9" fill="rgba(239,230,213,0.28)" stroke="rgba(239,230,213,0.85)" stroke-width="0.7"/>
<polygon points="18.9,239.2 18.9,253.0 51.0,253.0 68.0,253.0 68.0,239.2 35.9,239.2" fill="rgba(239,230,213,0.29)" stroke="rgba(239,230,213,0.85)" stroke-width="0.7"/>
<polygon points="26.8,239.2 26.8,239.2 61.6,239.2 61.6,239.2 61.6,225.4 26.8,225.4 26.8,225.4" fill="rgba(239,230,213,0.31)" stroke="rgba(239,230,213,0.85)" stroke-width="0.7"/>
<polygon points="26.1,225.4 69.6,225.4 69.6,211.7 26.1,211.7" fill="rgba(239,230,213,0.33)" stroke="rgba(239,230,213,0.85)" stroke-width="0.7"/>
<polygon points="15.4,197.9 15.4,211.7 40.0,211.7 70.7,211.7 70.7,197.9" fill="rgba(239,230,213,0.35)" stroke="rgba(239,230,213,0.85)" stroke-width="0.7"/>
<polygon points="77.5,253.0 112.3,253.0 112.3,253.0 112.3,239.2 77.5,239.2" fill="rgba(239,230,213,0.37)" stroke="rgba(239,230,213,0.85)" stroke-width="0.7"/>
<polygon points="69.7,225.4 69.7,239.2 101.7,239.2 118.7,239.2 118.7,225.4 86.7,225.4" fill="rgba(239,230,213,0.39)" stroke="rgba(239,230,213,0.85)" stroke-width="0.7"/>
<polygon points="70.7,225.4 119.7,225.4 119.7,211.7 70.7,211.7" fill="rgba(239,230,213,0.41)" stroke="rgba(239,230,213,0.85)" stroke-width="0.7"/>
<polygon points="70.4,197.9 70.4,211.7 102.4,211.7 119.4,211.7 119.4,197.9" fill="rgba(239,230,213,0.43)" stroke="rgba(239,230,213,0.85)" stroke-width="0.7"/>
<polygon points="68.5,253.0 99.2,253.0 123.8,253.0 123.8,239.2 93.1,239.2 68.5,239.2" fill="rgba(239,230,213,0.44)" stroke="rgba(239,230,213,0.85)" stroke-width="0.7"/>
<polygon points="76.8,239.2 76.8,239.2 111.6,239.2 111.6,239.2 111.6,225.4 76.8,225.4 76.8,225.4" fill="rgba(239,230,213,0.46)" stroke="rgba(239,230,213,0.85)" stroke-width="0.7"/>
<polygon points="66.9,211.7 66.9,225.4 122.2,225.4 122.2,211.7" fill="rgba(239,230,213,0.48)" stroke="rgba(239,230,213,0.85)" stroke-width="0.7"/>
<polygon points="22.2,197.9 22.8,197.9 66.3,197.9 66.3,184.1 22.2,184.1" fill="rgba(239,230,213,0.50)" stroke="rgba(239,230,213,0.85)" stroke-width="0.7"/>
<polygon points="71.8,211.7 83.1,211.7 116.7,211.7 116.7,197.9 71.8,197.9" fill="rgba(239,230,213,0.52)" stroke="rgba(239,230,213,0.85)" stroke-width="0.7"/>
<text x="18" y="149" fill="#8a7f70" font-family="system-ui, sans-serif" font-size="9">from the side</text>
<text x="71.0" y="273" fill="#cfc4b0" font-family="system-ui, sans-serif" font-size="12" text-anchor="middle">Messy</text>
<rect x="142" y="13" width="116" height="116" fill="#332d26" stroke="#5a4f42"/>
<polygon points="155.1,107.5 155.1,72.7 198.6,72.7 198.6,107.5" fill="rgba(239,230,213,0.22)" stroke="rgba(239,230,213,0.85)" stroke-width="0.7"/>
<polygon points="201.5,34.5 245.0,34.5 245.0,69.3 201.5,69.3" fill="rgba(239,230,213,0.24)" stroke="rgba(239,230,213,0.85)" stroke-width="0.7"/>
<polygon points="155.1,69.3 155.1,34.5 198.6,34.5 198.6,69.3" fill="rgba(239,230,213,0.26)" stroke="rgba(239,230,213,0.85)" stroke-width="0.7"/>
<polygon points="201.5,72.7 245.0,72.7 245.0,107.5 201.5,107.5" fill="rgba(239,230,213,0.28)" stroke="rgba(239,230,213,0.85)" stroke-width="0.7"/>
<polygon points="155.1,107.5 155.1,72.7 198.6,72.7 198.6,107.5" fill="rgba(239,230,213,0.29)" stroke="rgba(239,230,213,0.85)" stroke-width="0.7"/>
<polygon points="201.5,34.5 245.0,34.5 245.0,69.3 201.5,69.3" fill="rgba(239,230,213,0.31)" stroke="rgba(239,230,213,0.85)" stroke-width="0.7"/>
<polygon points="155.1,69.3 155.1,34.5 198.6,34.5 198.6,69.3" fill="rgba(239,230,213,0.33)" stroke="rgba(239,230,213,0.85)" stroke-width="0.7"/>
<polygon points="201.5,72.7 245.0,72.7 245.0,107.5 201.5,107.5" fill="rgba(239,230,213,0.35)" stroke="rgba(239,230,213,0.85)" stroke-width="0.7"/>
<polygon points="155.1,107.5 155.1,72.7 198.6,72.7 198.6,107.5" fill="rgba(239,230,213,0.37)" stroke="rgba(239,230,213,0.85)" stroke-width="0.7"/>
<polygon points="201.5,34.5 245.0,34.5 245.0,69.3 201.5,69.3" fill="rgba(239,230,213,0.39)" stroke="rgba(239,230,213,0.85)" stroke-width="0.7"/>
<polygon points="155.1,69.3 155.1,34.5 198.6,34.5 198.6,69.3" fill="rgba(239,230,213,0.41)" stroke="rgba(239,230,213,0.85)" stroke-width="0.7"/>
<polygon points="201.5,72.7 245.0,72.7 245.0,107.5 201.5,107.5" fill="rgba(239,230,213,0.43)" stroke="rgba(239,230,213,0.85)" stroke-width="0.7"/>
<polygon points="155.1,107.5 155.1,72.7 198.6,72.7 198.6,107.5" fill="rgba(239,230,213,0.44)" stroke="rgba(239,230,213,0.85)" stroke-width="0.7"/>
<polygon points="201.5,34.5 245.0,34.5 245.0,69.3 201.5,69.3" fill="rgba(239,230,213,0.46)" stroke="rgba(239,230,213,0.85)" stroke-width="0.7"/>
<polygon points="155.1,69.3 155.1,34.5 198.6,34.5 198.6,69.3" fill="rgba(239,230,213,0.48)" stroke="rgba(239,230,213,0.85)" stroke-width="0.7"/>
<polygon points="201.5,72.7 245.0,72.7 245.0,107.5 201.5,107.5" fill="rgba(239,230,213,0.50)" stroke="rgba(239,230,213,0.85)" stroke-width="0.7"/>
<polygon points="155.1,107.0 155.1,72.2 198.6,72.2 198.6,107.0" fill="rgba(239,230,213,0.52)" stroke="rgba(239,230,213,0.85)" stroke-width="0.7"/>
<text x="147" y="25" fill="#8a7f70" font-family="system-ui, sans-serif" font-size="9">from above</text>
<rect x="142" y="137" width="116" height="116" fill="#332d26" stroke="#5a4f42"/>
<polygon points="155.1,253.0 198.6,253.0 198.6,239.2 155.1,239.2 155.1,239.2" fill="rgba(239,230,213,0.22)" stroke="rgba(239,230,213,0.85)" stroke-width="0.7"/>
<polygon points="201.5,253.0 245.0,253.0 245.0,239.2 201.5,239.2" fill="rgba(239,230,213,0.24)" stroke="rgba(239,230,213,0.85)" stroke-width="0.7"/>
<polygon points="155.1,253.0 198.6,253.0 198.6,239.2 155.1,239.2 155.1,239.2" fill="rgba(239,230,213,0.26)" stroke="rgba(239,230,213,0.85)" stroke-width="0.7"/>
<polygon points="201.5,253.0 245.0,253.0 245.0,239.2 201.5,239.2" fill="rgba(239,230,213,0.28)" stroke="rgba(239,230,213,0.85)" stroke-width="0.7"/>
<polygon points="155.1,239.2 198.6,239.2 198.6,225.4 155.1,225.4 155.1,225.4" fill="rgba(239,230,213,0.29)" stroke="rgba(239,230,213,0.85)" stroke-width="0.7"/>
<polygon points="201.5,239.2 245.0,239.2 245.0,225.4 201.5,225.4" fill="rgba(239,230,213,0.31)" stroke="rgba(239,230,213,0.85)" stroke-width="0.7"/>
<polygon points="155.1,239.2 198.6,239.2 198.6,225.4 155.1,225.4 155.1,225.4" fill="rgba(239,230,213,0.33)" stroke="rgba(239,230,213,0.85)" stroke-width="0.7"/>
<polygon points="201.5,239.2 245.0,239.2 245.0,225.4 201.5,225.4" fill="rgba(239,230,213,0.35)" stroke="rgba(239,230,213,0.85)" stroke-width="0.7"/>
<polygon points="155.1,225.4 198.6,225.4 198.6,211.7 155.1,211.7" fill="rgba(239,230,213,0.37)" stroke="rgba(239,230,213,0.85)" stroke-width="0.7"/>
<polygon points="201.5,225.4 245.0,225.4 245.0,211.7 201.5,211.7" fill="rgba(239,230,213,0.39)" stroke="rgba(239,230,213,0.85)" stroke-width="0.7"/>
<polygon points="155.1,225.4 198.6,225.4 198.6,211.7 155.1,211.7" fill="rgba(239,230,213,0.41)" stroke="rgba(239,230,213,0.85)" stroke-width="0.7"/>
<polygon points="201.5,225.4 245.0,225.4 245.0,211.7 201.5,211.7" fill="rgba(239,230,213,0.43)" stroke="rgba(239,230,213,0.85)" stroke-width="0.7"/>
<polygon points="155.1,211.7 198.6,211.7 198.6,197.9 155.1,197.9" fill="rgba(239,230,213,0.44)" stroke="rgba(239,230,213,0.85)" stroke-width="0.7"/>
<polygon points="201.5,211.7 245.0,211.7 245.0,197.9 201.5,197.9" fill="rgba(239,230,213,0.46)" stroke="rgba(239,230,213,0.85)" stroke-width="0.7"/>
<polygon points="155.1,211.7 198.6,211.7 198.6,197.9 155.1,197.9" fill="rgba(239,230,213,0.48)" stroke="rgba(239,230,213,0.85)" stroke-width="0.7"/>
<polygon points="201.5,211.7 245.0,211.7 245.0,197.9 201.5,197.9" fill="rgba(239,230,213,0.50)" stroke="rgba(239,230,213,0.85)" stroke-width="0.7"/>
<polygon points="155.1,197.9 198.6,197.9 198.6,184.1 155.1,184.1" fill="rgba(239,230,213,0.52)" stroke="rgba(239,230,213,0.85)" stroke-width="0.7"/>
<text x="147" y="149" fill="#8a7f70" font-family="system-ui, sans-serif" font-size="9">from the side</text>
<text x="200.0" y="273" fill="#cfc4b0" font-family="system-ui, sans-serif" font-size="12" text-anchor="middle">Neat</text>
<rect x="271" y="13" width="116" height="116" fill="#332d26" stroke="#5a4f42"/>
<polygon points="280.7,75.7 314.8,69.0 323.1,111.7 289.0,118.4 289.0,118.4" fill="rgba(239,230,213,0.22)" stroke="rgba(239,230,213,0.85)" stroke-width="0.7"/>
<polygon points="277.5,109.7 291.1,77.7 291.1,77.7 331.2,94.7 317.6,126.7" fill="rgba(239,230,213,0.24)" stroke="rgba(239,230,213,0.85)" stroke-width="0.7"/>
<polygon points="292.0,65.9 326.8,65.9 326.8,65.9 326.8,109.4 292.0,109.4" fill="rgba(239,230,213,0.26)" stroke="rgba(239,230,213,0.85)" stroke-width="0.7"/>
<polygon points="278.2,101.1 293.8,60.5 326.3,72.9 310.7,113.6" fill="rgba(239,230,213,0.28)" stroke="rgba(239,230,213,0.85)" stroke-width="0.7"/>
<polygon points="271.4,55.0 291.8,16.6 322.5,32.9 302.1,71.3" fill="rgba(239,230,213,0.29)" stroke="rgba(239,230,213,0.85)" stroke-width="0.7"/>
<polygon points="284.9,16.5 319.6,14.1 322.7,57.5 287.9,59.9" fill="rgba(239,230,213,0.31)" stroke="rgba(239,230,213,0.85)" stroke-width="0.7"/>
<polygon points="270.7,33.0 310.9,16.4 324.2,48.5 284.0,65.2" fill="rgba(239,230,213,0.33)" stroke="rgba(239,230,213,0.85)" stroke-width="0.7"/>
<polygon points="282.9,49.0 309.1,14.3 336.8,35.2 336.8,35.3 310.7,70.0 282.9,49.1" fill="rgba(239,230,213,0.35)" stroke="rgba(239,230,213,0.85)" stroke-width="0.7"/>
<polygon points="326.2,34.9 350.8,10.3 381.5,41.1 356.9,65.7" fill="rgba(239,230,213,0.37)" stroke="rgba(239,230,213,0.85)" stroke-width="0.7"/>
<polygon points="327.7,55.2 344.7,15.2 376.7,28.8 376.7,28.8 359.7,68.8" fill="rgba(239,230,213,0.39)" stroke="rgba(239,230,213,0.85)" stroke-width="0.7"/>
<polygon points="328.7,30.6 360.7,17.0 377.7,57.1 345.6,70.7" fill="rgba(239,230,213,0.41)" stroke="rgba(239,230,213,0.85)" stroke-width="0.7"/>
<polygon points="328.4,60.3 345.4,20.2 377.4,33.8 377.4,33.8 360.4,73.9" fill="rgba(239,230,213,0.43)" stroke="rgba(239,230,213,0.85)" stroke-width="0.7"/>
<polygon points="326.5,98.0 351.1,73.4 381.8,104.2 357.2,128.8" fill="rgba(239,230,213,0.44)" stroke="rgba(239,230,213,0.85)" stroke-width="0.7"/>
<polygon points="334.8,79.0 369.6,79.0 369.6,122.5 334.8,122.5" fill="rgba(239,230,213,0.46)" stroke="rgba(239,230,213,0.85)" stroke-width="0.7"/>
<polygon points="328.4,113.9 345.4,73.9 377.4,87.5 360.4,127.5" fill="rgba(239,230,213,0.48)" stroke="rgba(239,230,213,0.85)" stroke-width="0.7"/>
<polygon points="276.7,49.8 287.4,16.7 328.8,30.1 318.0,63.2" fill="rgba(239,230,213,0.50)" stroke="rgba(239,230,213,0.85)" stroke-width="0.7"/>
<polygon points="307.4,77.4 332.9,54.2 361.8,82.4 363.9,87.5 338.4,110.7 309.5,82.5" fill="rgba(239,230,213,0.52)" stroke="rgba(239,230,213,0.85)" stroke-width="0.7"/>
<text x="276" y="25" fill="#8a7f70" font-family="system-ui, sans-serif" font-size="9">from above</text>
<rect x="271" y="137" width="116" height="116" fill="#332d26" stroke="#5a4f42"/>
<polygon points="280.7,253.0 289.0,253.0 323.1,253.0 323.1,239.2 314.8,239.2 280.7,239.2" fill="rgba(239,230,213,0.22)" stroke="rgba(239,230,213,0.85)" stroke-width="0.7"/>
<polygon points="277.5,239.2 317.6,239.2 331.2,239.2 331.2,225.4 291.1,225.4 277.5,225.4" fill="rgba(239,230,213,0.24)" stroke="rgba(239,230,213,0.85)" stroke-width="0.7"/>
<polygon points="292.0,225.4 326.8,225.4 326.8,211.7 292.0,211.7" fill="rgba(239,230,213,0.26)" stroke="rgba(239,230,213,0.85)" stroke-width="0.7"/>
<polygon points="278.2,197.9 278.2,211.7 310.7,211.7 326.3,211.7 326.3,197.9" fill="rgba(239,230,213,0.28)" stroke="rgba(239,230,213,0.85)" stroke-width="0.7"/>
<polygon points="271.4,239.2 271.4,253.0 302.1,253.0 322.5,253.0 322.5,239.2 291.8,239.2" fill="rgba(239,230,213,0.29)" stroke="rgba(239,230,213,0.85)" stroke-width="0.7"/>
<polygon points="284.9,239.2 287.9,239.2 322.7,239.2 322.7,225.4 319.6,225.4 284.9,225.4" fill="rgba(239,230,213,0.31)" stroke="rgba(239,230,213,0.85)" stroke-width="0.7"/>
<polygon points="270.7,211.7 270.7,225.4 324.2,225.4 324.2,211.7" fill="rgba(239,230,213,0.33)" stroke="rgba(239,230,213,0.85)" stroke-width="0.7"/>
<polygon points="282.9,211.7 310.7,211.7 336.8,211.7 336.8,197.9 309.1,197.9 282.9,197.9" fill="rgba(239,230,213,0.35)" stroke="rgba(239,230,213,0.85)" stroke-width="0.7"/>
<polygon points="326.2,253.0 350.8,253.0 381.5,253.0 381.5,239.2 356.9,239.2 326.2,239.2" fill="rgba(239,230,213,0.37)" stroke="rgba(239,230,213,0.85)" stroke-width="0.7"/>
<polygon points="327.7,225.4 327.7,239.2 359.7,239.2 376.7,239.2 376.7,225.4 344.7,225.4" fill="rgba(239,230,213,0.39)" stroke="rgba(239,230,213,0.85)" stroke-width="0.7"/>
<polygon points="328.7,225.4 377.7,225.4 377.7,211.7 328.7,211.7" fill="rgba(239,230,213,0.41)" stroke="rgba(239,230,213,0.85)" stroke-width="0.7"/>
<polygon points="328.4,197.9 328.4,211.7 360.4,211.7 377.4,211.7 377.4,197.9" fill="rgba(239,230,213,0.43)" stroke="rgba(239,230,213,0.85)" stroke-width="0.7"/>
<polygon points="326.5,253.0 357.2,253.0 381.8,253.0 381.8,239.2 351.1,239.2 326.5,239.2" fill="rgba(239,230,213,0.44)" stroke="rgba(239,230,213,0.85)" stroke-width="0.7"/>
<polygon points="334.8,239.2 334.8,239.2 369.6,239.2 369.6,239.2 369.6,225.4 334.8,225.4 334.8,225.4" fill="rgba(239,230,213,0.46)" stroke="rgba(239,230,213,0.85)" stroke-width="0.7"/>
<polygon points="328.4,211.7 328.4,225.4 377.4,225.4 377.4,211.7" fill="rgba(239,230,213,0.48)" stroke="rgba(239,230,213,0.85)" stroke-width="0.7"/>
<polygon points="276.7,197.9 287.4,197.9 328.8,197.9 328.8,184.1 276.7,184.1" fill="rgba(239,230,213,0.50)" stroke="rgba(239,230,213,0.85)" stroke-width="0.7"/>
<polygon points="307.4,196.8 336.4,213.0 361.8,207.6 363.9,195.0 334.9,178.9 309.5,184.2" fill="rgba(239,230,213,0.52)" stroke="rgba(239,230,213,0.85)" stroke-width="0.7"/>
<text x="276" y="149" fill="#8a7f70" font-family="system-ui, sans-serif" font-size="9">from the side</text>
<text x="329.0" y="273" fill="#cfc4b0" font-family="system-ui, sans-serif" font-size="12" text-anchor="middle">Tumbled</text>
<rect x="400" y="13" width="116" height="116" fill="#332d26" stroke="#5a4f42"/>
<polygon points="406.5,69.8 406.5,35.0 420.2,35.0 420.2,35.0 420.2,69.8 406.5,69.8" fill="rgba(239,230,213,0.22)" stroke="rgba(239,230,213,0.85)" stroke-width="0.7"/>
<polygon points="419.2,69.8 419.2,35.0 433.0,35.0 433.0,35.0 433.0,69.8 419.2,69.8" fill="rgba(239,230,213,0.24)" stroke="rgba(239,230,213,0.85)" stroke-width="0.7"/>
<polygon points="432.0,69.8 432.0,35.0 445.7,35.0 445.7,35.0 445.7,69.8 432.0,69.8" fill="rgba(239,230,213,0.26)" stroke="rgba(239,230,213,0.85)" stroke-width="0.7"/>
<polygon points="444.7,69.8 444.7,35.0 458.5,35.0 458.5,69.8 444.7,69.8" fill="rgba(239,230,213,0.28)" stroke="rgba(239,230,213,0.85)" stroke-width="0.7"/>
<polygon points="457.5,69.8 457.5,35.0 471.3,35.0 471.3,69.8 457.5,69.8" fill="rgba(239,230,213,0.29)" stroke="rgba(239,230,213,0.85)" stroke-width="0.7"/>
<polygon points="470.3,69.8 470.3,35.0 484.0,35.0 484.0,69.8 470.3,69.8" fill="rgba(239,230,213,0.31)" stroke="rgba(239,230,213,0.85)" stroke-width="0.7"/>
<polygon points="483.0,35.0 496.8,35.0 496.8,69.8 483.0,69.8" fill="rgba(239,230,213,0.33)" stroke="rgba(239,230,213,0.85)" stroke-width="0.7"/>
<polygon points="495.8,69.8 495.8,35.0 509.5,35.0 509.5,69.8 495.8,69.8" fill="rgba(239,230,213,0.35)" stroke="rgba(239,230,213,0.85)" stroke-width="0.7"/>
<polygon points="406.5,72.2 420.2,72.2 420.2,107.0 406.5,107.0 406.5,107.0 406.5,72.2" fill="rgba(239,230,213,0.37)" stroke="rgba(239,230,213,0.85)" stroke-width="0.7"/>
<polygon points="419.2,72.2 433.0,72.2 433.0,107.0 419.2,107.0" fill="rgba(239,230,213,0.39)" stroke="rgba(239,230,213,0.85)" stroke-width="0.7"/>
<polygon points="432.0,72.2 445.7,72.2 445.7,107.0 432.0,107.0 432.0,72.2" fill="rgba(239,230,213,0.41)" stroke="rgba(239,230,213,0.85)" stroke-width="0.7"/>
<polygon points="444.7,72.2 458.5,72.2 458.5,107.0 444.7,107.0 444.7,72.2" fill="rgba(239,230,213,0.43)" stroke="rgba(239,230,213,0.85)" stroke-width="0.7"/>
<polygon points="457.5,72.2 471.3,72.2 471.3,107.0 457.5,107.0 457.5,72.2" fill="rgba(239,230,213,0.44)" stroke="rgba(239,230,213,0.85)" stroke-width="0.7"/>
<polygon points="470.3,72.2 484.0,72.2 484.0,107.0 470.3,107.0" fill="rgba(239,230,213,0.46)" stroke="rgba(239,230,213,0.85)" stroke-width="0.7"/>
<polygon points="483.0,72.2 496.8,72.2 496.8,107.0 483.0,107.0" fill="rgba(239,230,213,0.48)" stroke="rgba(239,230,213,0.85)" stroke-width="0.7"/>
<polygon points="495.8,72.2 509.5,72.2 509.5,107.0 495.8,107.0" fill="rgba(239,230,213,0.50)" stroke="rgba(239,230,213,0.85)" stroke-width="0.7"/>
<polygon points="433.1,58.5 475.7,49.5 482.9,83.5 440.3,92.5 433.1,58.5" fill="rgba(239,230,213,0.52)" stroke="rgba(239,230,213,0.85)" stroke-width="0.7"/>
<text x="405" y="25" fill="#8a7f70" font-family="system-ui, sans-serif" font-size="9">from above</text>
<rect x="400" y="137" width="116" height="116" fill="#332d26" stroke="#5a4f42"/>
<polygon points="406.5,253.0 406.5,253.0 420.2,253.0 420.2,253.0 420.2,209.5 406.5,209.5" fill="rgba(239,230,213,0.22)" stroke="rgba(239,230,213,0.85)" stroke-width="0.7"/>
<polygon points="419.2,253.0 419.2,253.0 433.0,253.0 433.0,253.0 433.0,209.5 419.2,209.5" fill="rgba(239,230,213,0.24)" stroke="rgba(239,230,213,0.85)" stroke-width="0.7"/>
<polygon points="432.0,253.0 432.0,253.0 445.7,253.0 445.7,253.0 445.7,209.5 432.0,209.5" fill="rgba(239,230,213,0.26)" stroke="rgba(239,230,213,0.85)" stroke-width="0.7"/>
<polygon points="444.7,253.0 444.7,253.0 458.5,253.0 458.5,209.5 444.7,209.5" fill="rgba(239,230,213,0.28)" stroke="rgba(239,230,213,0.85)" stroke-width="0.7"/>
<polygon points="457.5,253.0 457.5,253.0 471.3,253.0 471.3,209.5 457.5,209.5" fill="rgba(239,230,213,0.29)" stroke="rgba(239,230,213,0.85)" stroke-width="0.7"/>
<polygon points="470.3,253.0 470.3,253.0 484.0,253.0 484.0,209.5 470.3,209.5" fill="rgba(239,230,213,0.31)" stroke="rgba(239,230,213,0.85)" stroke-width="0.7"/>
<polygon points="483.0,253.0 496.8,253.0 496.8,209.5 483.0,209.5" fill="rgba(239,230,213,0.33)" stroke="rgba(239,230,213,0.85)" stroke-width="0.7"/>
<polygon points="495.8,253.0 495.8,253.0 509.5,253.0 509.5,209.5 495.8,209.5" fill="rgba(239,230,213,0.35)" stroke="rgba(239,230,213,0.85)" stroke-width="0.7"/>
<polygon points="406.5,253.0 420.2,253.0 420.2,209.5 406.5,209.5 406.5,209.5" fill="rgba(239,230,213,0.37)" stroke="rgba(239,230,213,0.85)" stroke-width="0.7"/>
<polygon points="419.2,253.0 433.0,253.0 433.0,209.5 419.2,209.5" fill="rgba(239,230,213,0.39)" stroke="rgba(239,230,213,0.85)" stroke-width="0.7"/>
<polygon points="432.0,253.0 445.7,253.0 445.7,209.5 432.0,209.5 432.0,209.5" fill="rgba(239,230,213,0.41)" stroke="rgba(239,230,213,0.85)" stroke-width="0.7"/>
<polygon points="444.7,253.0 458.5,253.0 458.5,209.5 444.7,209.5 444.7,209.5" fill="rgba(239,230,213,0.43)" stroke="rgba(239,230,213,0.85)" stroke-width="0.7"/>
<polygon points="457.5,253.0 471.3,253.0 471.3,209.5 457.5,209.5 457.5,209.5" fill="rgba(239,230,213,0.44)" stroke="rgba(239,230,213,0.85)" stroke-width="0.7"/>
<polygon points="470.3,253.0 484.0,253.0 484.0,209.5 470.3,209.5" fill="rgba(239,230,213,0.46)" stroke="rgba(239,230,213,0.85)" stroke-width="0.7"/>
<polygon points="483.0,253.0 496.8,253.0 496.8,209.5 483.0,209.5" fill="rgba(239,230,213,0.48)" stroke="rgba(239,230,213,0.85)" stroke-width="0.7"/>
<polygon points="495.8,253.0 509.5,253.0 509.5,209.5 495.8,209.5" fill="rgba(239,230,213,0.50)" stroke="rgba(239,230,213,0.85)" stroke-width="0.7"/>
<polygon points="433.1,209.5 475.7,209.5 482.9,209.5 482.9,195.7 440.3,195.7 433.1,195.7" fill="rgba(239,230,213,0.52)" stroke="rgba(239,230,213,0.85)" stroke-width="0.7"/>
<text x="405" y="149" fill="#8a7f70" font-family="system-ui, sans-serif" font-size="9">from the side</text>
<text x="458.0" y="273" fill="#cfc4b0" font-family="system-ui, sans-serif" font-size="12" text-anchor="middle">Shelved</text>
<rect x="13" y="296" width="116" height="116" fill="#332d26" stroke="#5a4f42"/>
<polygon points="49.3,313.4 92.8,313.4 92.8,348.2 49.3,348.2" fill="rgba(239,230,213,0.22)" stroke="rgba(239,230,213,0.85)" stroke-width="0.7"/>
<polygon points="49.3,359.8 92.8,359.8 92.8,394.6 49.3,394.6" fill="rgba(239,230,213,0.24)" stroke="rgba(239,230,213,0.85)" stroke-width="0.7"/>
<polygon points="49.3,313.4 92.8,313.4 92.8,348.2 49.3,348.2" fill="rgba(239,230,213,0.26)" stroke="rgba(239,230,213,0.85)" stroke-width="0.7"/>
<polygon points="49.3,359.8 92.8,359.8 92.8,394.6 49.3,394.6" fill="rgba(239,230,213,0.28)" stroke="rgba(239,230,213,0.85)" stroke-width="0.7"/>
<polygon points="92.7,301.8 111.1,301.8 123.6,301.8 123.6,336.6 105.2,336.6 92.7,336.6" fill="rgba(239,230,213,0.29)" stroke="rgba(239,230,213,0.85)" stroke-width="0.7"/>
<polygon points="49.3,313.4 92.8,313.4 92.8,348.2 49.3,348.2" fill="rgba(239,230,213,0.31)" stroke="rgba(239,230,213,0.85)" stroke-width="0.7"/>
<polygon points="49.3,359.8 92.8,359.8 92.8,394.6 49.3,394.6" fill="rgba(239,230,213,0.33)" stroke="rgba(239,230,213,0.85)" stroke-width="0.7"/>
<polygon points="18.4,301.8 36.8,301.8 49.3,301.8 49.3,336.6 30.9,336.6 18.4,336.6" fill="rgba(239,230,213,0.35)" stroke="rgba(239,230,213,0.85)" stroke-width="0.7"/>
<polygon points="49.3,313.4 92.8,313.4 92.8,348.2 49.3,348.2" fill="rgba(239,230,213,0.37)" stroke="rgba(239,230,213,0.85)" stroke-width="0.7"/>
<polygon points="49.3,359.8 92.8,359.8 92.8,394.6 49.3,394.6" fill="rgba(239,230,213,0.39)" stroke="rgba(239,230,213,0.85)" stroke-width="0.7"/>
<polygon points="92.7,336.6 111.1,336.6 123.6,336.6 123.6,371.4 105.2,371.4 92.7,371.4" fill="rgba(239,230,213,0.41)" stroke="rgba(239,230,213,0.85)" stroke-width="0.7"/>
<polygon points="18.4,336.6 36.8,336.6 49.3,336.6 49.3,371.4 30.9,371.4 18.4,371.4" fill="rgba(239,230,213,0.43)" stroke="rgba(239,230,213,0.85)" stroke-width="0.7"/>
<polygon points="49.3,313.4 92.8,313.4 92.8,348.2 49.3,348.2" fill="rgba(239,230,213,0.44)" stroke="rgba(239,230,213,0.85)" stroke-width="0.7"/>
<polygon points="49.3,359.8 92.8,359.8 92.8,394.6 49.3,394.6" fill="rgba(239,230,213,0.46)" stroke="rgba(239,230,213,0.85)" stroke-width="0.7"/>
<polygon points="92.7,371.4 111.1,371.4 123.6,371.4 123.6,406.2 105.2,406.2 92.7,406.2" fill="rgba(239,230,213,0.48)" stroke="rgba(239,230,213,0.85)" stroke-width="0.7"/>
<polygon points="18.4,371.4 36.8,371.4 49.3,371.4 49.3,406.2 30.9,406.2 18.4,406.2" fill="rgba(239,230,213,0.50)" stroke="rgba(239,230,213,0.85)" stroke-width="0.7"/>
<polygon points="49.3,313.4 92.8,313.4 92.8,348.2 49.3,348.2" fill="rgba(239,230,213,0.52)" stroke="rgba(239,230,213,0.85)" stroke-width="0.7"/>
<text x="18" y="308" fill="#8a7f70" font-family="system-ui, sans-serif" font-size="9">from above</text>
<rect x="13" y="420" width="116" height="116" fill="#332d26" stroke="#5a4f42"/>
<polygon points="49.3,536.0 92.8,536.0 92.8,522.2 49.3,522.2 49.3,522.2" fill="rgba(239,230,213,0.22)" stroke="rgba(239,230,213,0.85)" stroke-width="0.7"/>
<polygon points="49.3,536.0 92.8,536.0 92.8,522.2 49.3,522.2 49.3,522.2" fill="rgba(239,230,213,0.24)" stroke="rgba(239,230,213,0.85)" stroke-width="0.7"/>
<polygon points="49.3,522.2 92.8,522.2 92.8,508.4 49.3,508.4 49.3,508.4" fill="rgba(239,230,213,0.26)" stroke="rgba(239,230,213,0.85)" stroke-width="0.7"/>
<polygon points="49.3,522.2 92.8,522.2 92.8,508.4 49.3,508.4 49.3,508.4" fill="rgba(239,230,213,0.28)" stroke="rgba(239,230,213,0.85)" stroke-width="0.7"/>
<polygon points="92.7,496.6 111.1,536.0 111.1,536.0 123.6,530.2 105.2,490.8 105.2,490.8" fill="rgba(239,230,213,0.29)" stroke="rgba(239,230,213,0.85)" stroke-width="0.7"/>
<polygon points="49.3,508.4 92.8,508.4 92.8,494.7 49.3,494.7" fill="rgba(239,230,213,0.31)" stroke="rgba(239,230,213,0.85)" stroke-width="0.7"/>
<polygon points="49.3,508.4 92.8,508.4 92.8,494.7 49.3,494.7" fill="rgba(239,230,213,0.33)" stroke="rgba(239,230,213,0.85)" stroke-width="0.7"/>
<polygon points="18.4,530.2 30.9,536.0 30.9,536.0 49.3,496.6 36.8,490.8 36.8,490.8" fill="rgba(239,230,213,0.35)" stroke="rgba(239,230,213,0.85)" stroke-width="0.7"/>
<polygon points="49.3,494.7 92.8,494.7 92.8,480.9 49.3,480.9" fill="rgba(239,230,213,0.37)" stroke="rgba(239,230,213,0.85)" stroke-width="0.7"/>
<polygon points="49.3,494.7 92.8,494.7 92.8,480.9 49.3,480.9" fill="rgba(239,230,213,0.39)" stroke="rgba(239,230,213,0.85)" stroke-width="0.7"/>
<polygon points="92.7,496.6 111.1,536.0 111.1,536.0 123.6,530.2 105.2,490.8 105.2,490.8" fill="rgba(239,230,213,0.41)" stroke="rgba(239,230,213,0.85)" stroke-width="0.7"/>
<polygon points="18.4,530.2 30.9,536.0 30.9,536.0 49.3,496.6 36.8,490.8 36.8,490.8" fill="rgba(239,230,213,0.43)" stroke="rgba(239,230,213,0.85)" stroke-width="0.7"/>
<polygon points="49.3,480.9 92.8,480.9 92.8,467.1 49.3,467.1" fill="rgba(239,230,213,0.44)" stroke="rgba(239,230,213,0.85)" stroke-width="0.7"/>
<polygon points="49.3,480.9 92.8,480.9 92.8,467.1 49.3,467.1" fill="rgba(239,230,213,0.46)" stroke="rgba(239,230,213,0.85)" stroke-width="0.7"/>
<polygon points="92.7,496.6 111.1,536.0 111.1,536.0 123.6,530.2 105.2,490.8 105.2,490.8" fill="rgba(239,230,213,0.48)" stroke="rgba(239,230,213,0.85)" stroke-width="0.7"/>
<polygon points="18.4,530.2 30.9,536.0 30.9,536.0 49.3,496.6 36.8,490.8 36.8,490.8" fill="rgba(239,230,213,0.50)" stroke="rgba(239,230,213,0.85)" stroke-width="0.7"/>
<polygon points="49.3,467.1 92.8,467.1 92.8,453.4 49.3,453.4" fill="rgba(239,230,213,0.52)" stroke="rgba(239,230,213,0.85)" stroke-width="0.7"/>
<text x="18" y="432" fill="#8a7f70" font-family="system-ui, sans-serif" font-size="9">from the side</text>
<text x="71.0" y="556" fill="#cfc4b0" font-family="system-ui, sans-serif" font-size="12" text-anchor="middle">Leaning</text>
<rect x="142" y="296" width="116" height="116" fill="#332d26" stroke="#5a4f42"/>
<polygon points="141.0,378.7 167.1,355.6 195.9,388.2 169.8,411.2" fill="rgba(239,230,213,0.22)" stroke="rgba(239,230,213,0.85)" stroke-width="0.7"/>
<polygon points="147.9,338.9 164.9,298.9 197.0,312.5 197.0,312.5 180.0,352.5" fill="rgba(239,230,213,0.24)" stroke="rgba(239,230,213,0.85)" stroke-width="0.7"/>
<polygon points="145.3,323.8 169.9,299.2 200.6,329.9 176.0,354.5" fill="rgba(239,230,213,0.26)" stroke="rgba(239,230,213,0.85)" stroke-width="0.7"/>
<polygon points="150.7,307.6 194.2,307.6 194.2,342.4 150.7,342.4" fill="rgba(239,230,213,0.28)" stroke="rgba(239,230,213,0.85)" stroke-width="0.7"/>
<polygon points="144.4,327.9 175.1,297.1 199.7,321.7 169.0,352.5" fill="rgba(239,230,213,0.29)" stroke="rgba(239,230,213,0.85)" stroke-width="0.7"/>
<polygon points="200.1,336.1 219.2,297.0 250.5,312.2 250.5,312.2 231.4,351.3 200.1,336.1" fill="rgba(239,230,213,0.31)" stroke="rgba(239,230,213,0.85)" stroke-width="0.7"/>
<polygon points="201.4,310.8 234.5,300.0 247.9,341.4 214.8,352.1" fill="rgba(239,230,213,0.33)" stroke="rgba(239,230,213,0.85)" stroke-width="0.7"/>
<polygon points="200.0,338.6 211.3,305.7 252.5,319.9 241.1,352.8" fill="rgba(239,230,213,0.35)" stroke="rgba(239,230,213,0.85)" stroke-width="0.7"/>
<polygon points="207.1,370.5 239.4,357.4 255.7,397.8 223.4,410.8" fill="rgba(239,230,213,0.37)" stroke="rgba(239,230,213,0.85)" stroke-width="0.7"/>
<polygon points="201.4,381.4 235.7,354.6 257.1,382.1 222.9,408.8" fill="rgba(239,230,213,0.39)" stroke="rgba(239,230,213,0.85)" stroke-width="0.7"/>
<polygon points="150.9,336.9 161.7,303.8 203.0,317.2 192.3,350.3" fill="rgba(239,230,213,0.41)" stroke="rgba(239,230,213,0.85)" stroke-width="0.7"/>
<polygon points="178.2,343.5 213.0,341.7 214.0,360.8 214.6,373.1 179.9,374.9 178.9,355.9" fill="rgba(239,230,213,0.43)" stroke="rgba(239,230,213,0.85)" stroke-width="0.7"/>
<polygon points="139.6,377.0 165.6,354.0 194.5,386.5 168.4,409.6" fill="rgba(239,230,213,0.44)" stroke="rgba(239,230,213,0.85)" stroke-width="0.7"/>
<polygon points="142.2,393.5 159.2,353.4 191.3,367.0 174.3,407.1" fill="rgba(239,230,213,0.46)" stroke="rgba(239,230,213,0.85)" stroke-width="0.7"/>
<polygon points="203.2,379.5 227.8,354.9 227.8,354.9 258.6,385.7 234.0,410.3" fill="rgba(239,230,213,0.48)" stroke="rgba(239,230,213,0.85)" stroke-width="0.7"/>
<polygon points="176.1,338.8 219.6,338.8 219.6,373.6 176.1,373.6" fill="rgba(239,230,213,0.50)" stroke="rgba(239,230,213,0.85)" stroke-width="0.7"/>
<polygon points="139.4,382.9 170.2,352.1 194.8,376.7 164.0,407.5" fill="rgba(239,230,213,0.52)" stroke="rgba(239,230,213,0.85)" stroke-width="0.7"/>
<text x="147" y="308" fill="#8a7f70" font-family="system-ui, sans-serif" font-size="9">from above</text>
<rect x="142" y="420" width="116" height="116" fill="#332d26" stroke="#5a4f42"/>
<polygon points="141.0,536.0 169.8,536.0 195.9,536.0 195.9,522.2 167.1,522.2 141.0,522.2" fill="rgba(239,230,213,0.22)" stroke="rgba(239,230,213,0.85)" stroke-width="0.7"/>
<polygon points="147.9,522.2 147.9,536.0 180.0,536.0 197.0,536.0 197.0,522.2 164.9,522.2" fill="rgba(239,230,213,0.24)" stroke="rgba(239,230,213,0.85)" stroke-width="0.7"/>
<polygon points="145.3,522.2 176.0,522.2 200.6,522.2 200.6,508.4 169.9,508.4 145.3,508.4" fill="rgba(239,230,213,0.26)" stroke="rgba(239,230,213,0.85)" stroke-width="0.7"/>
<polygon points="150.7,494.7 150.7,508.4 194.2,508.4 194.2,494.7" fill="rgba(239,230,213,0.28)" stroke="rgba(239,230,213,0.85)" stroke-width="0.7"/>
<polygon points="144.4,480.9 144.4,494.7 169.0,494.7 199.7,494.7 199.7,480.9" fill="rgba(239,230,213,0.29)" stroke="rgba(239,230,213,0.85)" stroke-width="0.7"/>
<polygon points="200.1,536.0 231.4,536.0 250.5,536.0 250.5,522.2 219.2,522.2 200.1,522.2" fill="rgba(239,230,213,0.31)" stroke="rgba(239,230,213,0.85)" stroke-width="0.7"/>
<polygon points="201.4,522.2 214.8,522.2 247.9,522.2 247.9,508.4 234.5,508.4 201.4,508.4" fill="rgba(239,230,213,0.33)" stroke="rgba(239,230,213,0.85)" stroke-width="0.7"/>
<polygon points="200.0,508.4 252.5,508.4 252.5,494.7 200.0,494.7" fill="rgba(239,230,213,0.35)" stroke="rgba(239,230,213,0.85)" stroke-width="0.7"/>
<polygon points="207.1,536.0 223.4,536.0 255.7,536.0 255.7,522.2 239.4,522.2 207.1,522.2" fill="rgba(239,230,213,0.37)" stroke="rgba(239,230,213,0.85)" stroke-width="0.7"/>
<polygon points="201.4,508.4 201.4,522.2 222.9,522.2 257.1,522.2 257.1,508.4 235.7,508.4" fill="rgba(239,230,213,0.39)" stroke="rgba(239,230,213,0.85)" stroke-width="0.7"/>
<polygon points="150.9,480.9 192.3,480.9 203.0,480.9 203.0,467.1 150.9,467.1" fill="rgba(239,230,213,0.41)" stroke="rgba(239,230,213,0.85)" stroke-width="0.7"/>
<polygon points="178.2,497.7 179.2,536.8 214.0,536.8 214.6,530.7 213.6,491.6 178.9,491.6" fill="rgba(239,230,213,0.43)" stroke="rgba(239,230,213,0.85)" stroke-width="0.7"/>
<polygon points="139.6,522.2 168.4,522.2 194.5,522.2 194.5,508.4 165.6,508.4 139.6,508.4" fill="rgba(239,230,213,0.44)" stroke="rgba(239,230,213,0.85)" stroke-width="0.7"/>
<polygon points="142.2,494.7 142.2,508.4 191.3,508.4 191.3,494.7" fill="rgba(239,230,213,0.46)" stroke="rgba(239,230,213,0.85)" stroke-width="0.7"/>
<polygon points="203.2,508.4 258.6,508.4 258.6,494.7 203.2,494.7" fill="rgba(239,230,213,0.48)" stroke="rgba(239,230,213,0.85)" stroke-width="0.7"/>
<polygon points="176.1,491.8 176.1,505.6 176.1,505.6 219.6,505.6 219.6,491.8" fill="rgba(239,230,213,0.50)" stroke="rgba(239,230,213,0.85)" stroke-width="0.7"/>
<polygon points="139.4,480.9 139.4,494.7 164.0,494.7 194.8,494.7 194.8,480.9" fill="rgba(239,230,213,0.52)" stroke="rgba(239,230,213,0.85)" stroke-width="0.7"/>
<text x="147" y="432" fill="#8a7f70" font-family="system-ui, sans-serif" font-size="9">from the side</text>
<text x="200.0" y="556" fill="#cfc4b0" font-family="system-ui, sans-serif" font-size="12" text-anchor="middle">Uneven</text>
<rect x="271" y="296" width="116" height="116" fill="#332d26" stroke="#5a4f42"/>
<polygon points="284.2,338.9 301.2,298.9 333.2,312.5 333.2,312.5 316.2,352.5" fill="rgba(239,230,213,0.22)" stroke="rgba(239,230,213,0.85)" stroke-width="0.7"/>
<polygon points="291.8,305.7 326.5,303.9 328.8,347.3 294.0,349.2" fill="rgba(239,230,213,0.24)" stroke="rgba(239,230,213,0.85)" stroke-width="0.7"/>
<polygon points="307.6,332.0 320.1,299.5 360.7,315.1 348.2,347.5" fill="rgba(239,230,213,0.26)" stroke="rgba(239,230,213,0.85)" stroke-width="0.7"/>
<polygon points="330.4,309.0 364.5,301.8 373.5,344.4 339.5,351.6" fill="rgba(239,230,213,0.28)" stroke="rgba(239,230,213,0.85)" stroke-width="0.7"/>
<polygon points="327.4,337.7 345.1,298.0 376.9,312.2 376.9,312.2 359.2,351.9" fill="rgba(239,230,213,0.29)" stroke="rgba(239,230,213,0.85)" stroke-width="0.7"/>
<polygon points="306.1,318.7 336.8,302.4 357.2,340.8 326.5,357.1" fill="rgba(239,230,213,0.31)" stroke="rgba(239,230,213,0.85)" stroke-width="0.7"/>
<polygon points="304.0,373.8 328.6,349.2 328.6,349.2 359.4,379.9 334.8,404.5" fill="rgba(239,230,213,0.33)" stroke="rgba(239,230,213,0.85)" stroke-width="0.7"/>
<polygon points="312.3,354.0 355.8,354.0 355.8,388.8 312.3,388.8" fill="rgba(239,230,213,0.35)" stroke="rgba(239,230,213,0.85)" stroke-width="0.7"/>
<polygon points="285.0,336.9 302.0,296.9 334.1,310.5 334.1,310.5 317.1,350.5" fill="rgba(239,230,213,0.37)" stroke="rgba(239,230,213,0.85)" stroke-width="0.7"/>
<polygon points="333.0,303.5 367.7,301.7 370.0,345.2 335.2,347.0 333.0,303.5" fill="rgba(239,230,213,0.39)" stroke="rgba(239,230,213,0.85)" stroke-width="0.7"/>
<polygon points="304.1,384.1 316.6,351.6 357.2,367.2 344.7,399.7" fill="rgba(239,230,213,0.41)" stroke="rgba(239,230,213,0.85)" stroke-width="0.7"/>
<polygon points="287.9,306.9 322.0,299.7 331.0,342.2 297.0,349.5" fill="rgba(239,230,213,0.43)" stroke="rgba(239,230,213,0.85)" stroke-width="0.7"/>
<polygon points="326.9,336.5 344.6,296.7 376.3,310.9 376.3,310.9 358.6,350.6" fill="rgba(239,230,213,0.44)" stroke="rgba(239,230,213,0.85)" stroke-width="0.7"/>
<polygon points="304.3,363.9 335.0,347.6 355.5,386.0 324.7,402.4" fill="rgba(239,230,213,0.46)" stroke="rgba(239,230,213,0.85)" stroke-width="0.7"/>
<polygon points="282.2,322.2 306.8,297.6 337.5,328.4 312.9,353.0" fill="rgba(239,230,213,0.48)" stroke="rgba(239,230,213,0.85)" stroke-width="0.7"/>
<polygon points="331.2,308.3 374.7,308.3 374.7,343.1 331.2,343.1" fill="rgba(239,230,213,0.50)" stroke="rgba(239,230,213,0.85)" stroke-width="0.7"/>
<polygon points="305.3,387.0 322.3,346.9 354.4,360.5 337.4,400.6" fill="rgba(239,230,213,0.52)" stroke="rgba(239,230,213,0.85)" stroke-width="0.7"/>
<text x="276" y="308" fill="#8a7f70" font-family="system-ui, sans-serif" font-size="9">from above</text>
<rect x="271" y="420" width="116" height="116" fill="#332d26" stroke="#5a4f42"/>
<polygon points="284.2,522.2 284.2,536.0 316.2,536.0 333.2,536.0 333.2,522.2 301.2,522.2" fill="rgba(239,230,213,0.22)" stroke="rgba(239,230,213,0.85)" stroke-width="0.7"/>
<polygon points="291.8,522.2 294.0,522.2 328.8,522.2 328.8,508.4 326.5,508.4 291.8,508.4" fill="rgba(239,230,213,0.24)" stroke="rgba(239,230,213,0.85)" stroke-width="0.7"/>
<polygon points="307.6,494.7 348.2,494.7 360.7,494.7 360.7,480.9 307.6,480.9" fill="rgba(239,230,213,0.26)" stroke="rgba(239,230,213,0.85)" stroke-width="0.7"/>
<polygon points="330.4,536.0 339.5,536.0 373.5,536.0 373.5,522.2 364.5,522.2 330.4,522.2" fill="rgba(239,230,213,0.28)" stroke="rgba(239,230,213,0.85)" stroke-width="0.7"/>
<polygon points="327.4,508.4 327.4,522.2 359.2,522.2 376.9,522.2 376.9,508.4 345.1,508.4" fill="rgba(239,230,213,0.29)" stroke="rgba(239,230,213,0.85)" stroke-width="0.7"/>
<polygon points="306.1,508.4 357.2,508.4 357.2,494.7 306.1,494.7" fill="rgba(239,230,213,0.31)" stroke="rgba(239,230,213,0.85)" stroke-width="0.7"/>
<polygon points="304.0,536.0 334.8,536.0 359.4,536.0 359.4,522.2 328.6,522.2 304.0,522.2" fill="rgba(239,230,213,0.33)" stroke="rgba(239,230,213,0.85)" stroke-width="0.7"/>
<polygon points="312.3,522.2 355.8,522.2 355.8,508.4 312.3,508.4 312.3,508.4" fill="rgba(239,230,213,0.35)" stroke="rgba(239,230,213,0.85)" stroke-width="0.7"/>
<polygon points="285.0,494.7 285.0,508.4 334.1,508.4 334.1,494.7" fill="rgba(239,230,213,0.37)" stroke="rgba(239,230,213,0.85)" stroke-width="0.7"/>
<polygon points="333.0,508.4 370.0,508.4 370.0,494.7 333.0,494.7" fill="rgba(239,230,213,0.39)" stroke="rgba(239,230,213,0.85)" stroke-width="0.7"/>
<polygon points="304.1,508.4 357.2,508.4 357.2,494.7 304.1,494.7" fill="rgba(239,230,213,0.41)" stroke="rgba(239,230,213,0.85)" stroke-width="0.7"/>
<polygon points="287.9,494.7 297.0,494.7 331.0,494.7 331.0,480.9 287.9,480.9" fill="rgba(239,230,213,0.43)" stroke="rgba(239,230,213,0.85)" stroke-width="0.7"/>
<polygon points="326.9,480.9 326.9,494.7 358.6,494.7 376.3,494.7 376.3,480.9" fill="rgba(239,230,213,0.44)" stroke="rgba(239,230,213,0.85)" stroke-width="0.7"/>
<polygon points="304.3,494.7 324.7,494.7 355.5,494.7 355.5,480.9 304.3,480.9" fill="rgba(239,230,213,0.46)" stroke="rgba(239,230,213,0.85)" stroke-width="0.7"/>
<polygon points="282.2,480.9 312.9,480.9 337.5,480.9 337.5,467.1 282.2,467.1" fill="rgba(239,230,213,0.48)" stroke="rgba(239,230,213,0.85)" stroke-width="0.7"/>
<polygon points="331.2,480.9 374.7,480.9 374.7,467.1 331.2,467.1" fill="rgba(239,230,213,0.50)" stroke="rgba(239,230,213,0.85)" stroke-width="0.7"/>
<polygon points="305.3,467.1 305.3,480.9 337.4,480.9 354.4,480.9 354.4,467.1" fill="rgba(239,230,213,0.52)" stroke="rgba(239,230,213,0.85)" stroke-width="0.7"/>
<text x="276" y="432" fill="#8a7f70" font-family="system-ui, sans-serif" font-size="9">from the side</text>
<text x="329.0" y="556" fill="#cfc4b0" font-family="system-ui, sans-serif" font-size="12" text-anchor="middle">Bridged</text>
<rect x="400" y="296" width="116" height="116" fill="#332d26" stroke="#5a4f42"/>
<polygon points="462.9,357.2 497.6,354.1 501.3,397.5 466.7,400.5" fill="rgba(239,230,213,0.22)" stroke="rgba(239,230,213,0.85)" stroke-width="0.7"/>
<polygon points="414.4,360.6 416.1,355.6 429.2,317.6 462.1,328.9 460.4,333.9 447.3,371.9" fill="rgba(239,230,213,0.24)" stroke="rgba(239,230,213,0.85)" stroke-width="0.7"/>
<polygon points="459.7,341.9 490.4,325.6 510.9,364.0 480.1,380.3" fill="rgba(239,230,213,0.26)" stroke="rgba(239,230,213,0.85)" stroke-width="0.7"/>
<polygon points="461.1,350.8 464.9,307.5 499.5,310.5 499.5,310.5 495.7,353.8 461.1,350.8" fill="rgba(239,230,213,0.28)" stroke="rgba(239,230,213,0.85)" stroke-width="0.7"/>
<polygon points="465.3,306.1 500.1,304.9 501.6,348.4 466.8,349.6" fill="rgba(239,230,213,0.29)" stroke="rgba(239,230,213,0.85)" stroke-width="0.7"/>
<polygon points="457.9,395.7 469.9,353.9 503.4,363.5 491.4,405.3" fill="rgba(239,230,213,0.31)" stroke="rgba(239,230,213,0.85)" stroke-width="0.7"/>
<polygon points="402.6,362.0 442.8,345.3 456.1,377.5 416.0,394.1" fill="rgba(239,230,213,0.33)" stroke="rgba(239,230,213,0.85)" stroke-width="0.7"/>
<polygon points="406.2,349.2 440.8,346.2 444.6,389.5 409.9,392.5" fill="rgba(239,230,213,0.35)" stroke="rgba(239,230,213,0.85)" stroke-width="0.7"/>
<polygon points="414.1,361.4 428.2,320.3 461.2,331.6 447.0,372.7" fill="rgba(239,230,213,0.37)" stroke="rgba(239,230,213,0.85)" stroke-width="0.7"/>
<polygon points="456.5,364.7 487.2,348.3 507.7,386.7 476.9,403.1" fill="rgba(239,230,213,0.39)" stroke="rgba(239,230,213,0.85)" stroke-width="0.7"/>
<polygon points="461.3,348.6 465.0,305.3 499.7,308.3 499.7,308.3 495.9,351.7 461.3,348.6" fill="rgba(239,230,213,0.41)" stroke="rgba(239,230,213,0.85)" stroke-width="0.7"/>
<polygon points="407.2,348.1 442.0,346.9 442.0,346.9 443.5,390.4 408.7,391.6" fill="rgba(239,230,213,0.43)" stroke="rgba(239,230,213,0.85)" stroke-width="0.7"/>
<polygon points="412.1,361.7 424.1,319.9 457.6,329.5 445.6,371.3" fill="rgba(239,230,213,0.44)" stroke="rgba(239,230,213,0.85)" stroke-width="0.7"/>
<polygon points="457.2,368.6 497.4,352.0 510.7,384.1 470.5,400.8" fill="rgba(239,230,213,0.46)" stroke="rgba(239,230,213,0.85)" stroke-width="0.7"/>
<polygon points="464.9,330.4 499.5,327.3 503.3,370.7 468.7,373.7" fill="rgba(239,230,213,0.48)" stroke="rgba(239,230,213,0.85)" stroke-width="0.7"/>
<polygon points="459.8,344.0 473.9,302.9 506.8,314.2 492.7,355.3 492.7,355.3" fill="rgba(239,230,213,0.50)" stroke="rgba(239,230,213,0.85)" stroke-width="0.7"/>
<polygon points="400.0,358.9 430.7,342.5 451.1,380.9 420.4,397.3" fill="rgba(239,230,213,0.52)" stroke="rgba(239,230,213,0.85)" stroke-width="0.7"/>
<text x="405" y="308" fill="#8a7f70" font-family="system-ui, sans-serif" font-size="9">from above</text>
<rect x="400" y="420" width="116" height="116" fill="#332d26" stroke="#5a4f42"/>
<polygon points="462.9,536.0 466.7,536.0 501.3,536.0 501.3,522.2 497.6,522.2 462.9,522.2" fill="rgba(239,230,213,0.22)" stroke="rgba(239,230,213,0.85)" stroke-width="0.7"/>
<polygon points="414.4,520.0 427.5,536.6 460.4,536.6 462.1,523.9 449.0,507.3 416.1,507.3" fill="rgba(239,230,213,0.24)" stroke="rgba(239,230,213,0.85)" stroke-width="0.7"/>
<polygon points="459.7,509.2 480.1,509.2 510.9,509.2 510.9,495.4 459.7,495.4" fill="rgba(239,230,213,0.26)" stroke="rgba(239,230,213,0.85)" stroke-width="0.7"/>
<polygon points="461.1,536.0 495.7,536.0 499.5,536.0 499.5,522.2 464.9,522.2 461.1,522.2" fill="rgba(239,230,213,0.28)" stroke="rgba(239,230,213,0.85)" stroke-width="0.7"/>
<polygon points="465.3,522.2 466.8,522.2 501.6,522.2 501.6,508.4 500.1,508.4 465.3,508.4" fill="rgba(239,230,213,0.29)" stroke="rgba(239,230,213,0.85)" stroke-width="0.7"/>
<polygon points="457.9,509.2 457.9,523.0 491.4,523.0 503.4,523.0 503.4,509.2" fill="rgba(239,230,213,0.31)" stroke="rgba(239,230,213,0.85)" stroke-width="0.7"/>
<polygon points="402.6,536.0 442.8,536.0 456.1,536.0 456.1,522.2 416.0,522.2 402.6,522.2" fill="rgba(239,230,213,0.33)" stroke="rgba(239,230,213,0.85)" stroke-width="0.7"/>
<polygon points="406.2,522.2 409.9,522.2 444.6,522.2 444.6,508.4 440.8,508.4 406.2,508.4" fill="rgba(239,230,213,0.35)" stroke="rgba(239,230,213,0.85)" stroke-width="0.7"/>
<polygon points="414.1,514.2 461.2,514.2 461.2,500.5 414.1,500.5" fill="rgba(239,230,213,0.37)" stroke="rgba(239,230,213,0.85)" stroke-width="0.7"/>
<polygon points="456.5,509.2 476.9,509.2 507.7,509.2 507.7,495.4 456.5,495.4" fill="rgba(239,230,213,0.39)" stroke="rgba(239,230,213,0.85)" stroke-width="0.7"/>
<polygon points="461.3,508.4 499.7,508.4 499.7,494.7 461.3,494.7" fill="rgba(239,230,213,0.41)" stroke="rgba(239,230,213,0.85)" stroke-width="0.7"/>
<polygon points="407.2,508.4 443.5,508.4 443.5,494.7 407.2,494.7" fill="rgba(239,230,213,0.43)" stroke="rgba(239,230,213,0.85)" stroke-width="0.7"/>
<polygon points="412.1,486.7 412.1,500.5 445.6,500.5 457.6,500.5 457.6,486.7 424.1,486.7" fill="rgba(239,230,213,0.44)" stroke="rgba(239,230,213,0.85)" stroke-width="0.7"/>
<polygon points="457.2,495.4 497.4,495.4 510.7,495.4 510.7,481.6 457.2,481.6" fill="rgba(239,230,213,0.46)" stroke="rgba(239,230,213,0.85)" stroke-width="0.7"/>
<polygon points="464.9,495.4 468.7,495.4 503.3,495.4 503.3,481.6 464.9,481.6" fill="rgba(239,230,213,0.48)" stroke="rgba(239,230,213,0.85)" stroke-width="0.7"/>
<polygon points="459.8,494.7 473.9,494.7 506.8,494.7 506.8,480.9 459.8,480.9" fill="rgba(239,230,213,0.50)" stroke="rgba(239,230,213,0.85)" stroke-width="0.7"/>
<polygon points="400.0,494.7 420.4,494.7 451.1,494.7 451.1,480.9 400.0,480.9" fill="rgba(239,230,213,0.52)" stroke="rgba(239,230,213,0.85)" stroke-width="0.7"/>
<text x="405" y="432" fill="#8a7f70" font-family="system-ui, sans-serif" font-size="9">from the side</text>
<text x="458.0" y="556" fill="#cfc4b0" font-family="system-ui, sans-serif" font-size="12" text-anchor="middle">Scattered</text>
</svg>
